<svg viewBox="0 0 452 80" fill="none" xmlns="http://www.w3.org/2000/svg">
<g id="tuxcat-box">
<rect id="tuxcat-box-background" x="1" y="1" width="450" height="78" rx="2" fill="#CBCBCB"/>
<g id="tuxvec">
<path id="T" d="M21.7565 14.2841H62.5451V16.5713H43.485V64.984H40.8166V16.5713H21.7565V14.2841Z" fill="#FFF2F2" stroke="white"/>
<path id="U" d="M98.0426 15.0465H95.7554V46.5931C95.7554 52.9775 101.397 65.7464 116.34 65.7464C131.283 65.7464 136.544 52.602 136.544 46.5931V15.0465H133.876V46.5931C133.876 51.8509 129.454 63.4931 116.34 63.4931C103.227 63.4931 98.0426 51.8509 98.0426 46.5931V15.0465Z" fill="#FFF2F2" stroke="white"/>
<path id="X" d="M169.754 14.2841H172.694L189.965 37.5375L207.603 14.2841H210.543L191.435 39.4435L210.543 64.984H207.603L189.965 41.3495L172.694 64.984H169.754L188.495 39.4435L169.754 14.2841Z" fill="#FFF2F2" stroke="white"/>
<path id="C" d="M281.874 31.3048H284.542C284.542 31.3048 283.017 14.2841 264.719 14.2841C248.861 14.2841 243.753 26.5969 243.753 32.7534V46.5148C243.753 47.9633 246.422 64.984 264.719 64.984C279.358 64.984 284.542 54.844 284.542 47.9633H281.874C281.746 52.7919 278.443 62.449 264.719 62.449C250.996 62.449 246.422 51.9469 246.422 46.5148V32.7534C246.422 30.5805 249.09 16.8191 264.719 16.8191C277.223 16.8191 281.365 26.4762 281.874 31.3048Z" fill="#FFF2F2" stroke="white"/>
<g id="Exclude">
<path fill-rule="evenodd" clip-rule="evenodd" d="M320.193 64.984H317.752L336.926 14.2841H339.367L358.541 64.984H356.101L349.477 47.8299H326.816L320.193 64.984ZM328.045 45.1615H348.248L338.337 17.715L328.045 45.1615Z" fill="#FFF2F2"/>
<path d="M317.752 64.984L317.285 64.8071L317.029 65.484H317.752V64.984ZM320.193 64.984V65.484H320.536L320.659 65.1641L320.193 64.984ZM336.926 14.2841V13.7841H336.581L336.459 14.1073L336.926 14.2841ZM339.367 14.2841L339.834 14.1073L339.712 13.7841H339.367V14.2841ZM358.541 64.984V65.484H359.265L359.009 64.8071L358.541 64.984ZM356.101 64.984L355.634 65.1641L355.758 65.484H356.101V64.984ZM349.477 47.8299L349.943 47.6498L349.82 47.3299H349.477V47.8299ZM326.816 47.8299V47.3299H326.473L326.35 47.6498L326.816 47.8299ZM348.248 45.1615V45.6615H348.961L348.719 44.9917L348.248 45.1615ZM328.045 45.1615L327.577 44.986L327.323 45.6615H328.045V45.1615ZM338.337 17.715L338.807 17.5452L338.346 16.2674L337.869 17.5394L338.337 17.715ZM327.862 45.1615L327.395 44.9835L327.137 45.6615H327.862V45.1615ZM348.431 45.1615V45.6615H349.148L348.9 44.9887L348.431 45.1615ZM338.321 17.7149L338.79 17.5421L338.329 16.2899L337.854 17.5369L338.321 17.7149ZM317.752 65.484H320.193V64.484H317.752V65.484ZM336.459 14.1073L317.285 64.8071L318.22 65.1609L337.394 14.461L336.459 14.1073ZM339.367 13.7841H336.926V14.7841H339.367V13.7841ZM359.009 64.8071L339.834 14.1073L338.899 14.461L358.073 65.1609L359.009 64.8071ZM356.101 65.484H358.541V64.484H356.101V65.484ZM349.01 48.01L355.634 65.1641L356.567 64.8039L349.943 47.6498L349.01 48.01ZM326.816 48.3299H349.477V47.3299H326.816V48.3299ZM320.659 65.1641L327.283 48.01L326.35 47.6498L319.726 64.8039L320.659 65.1641ZM348.248 44.6615H328.045V45.6615H348.248V44.6615ZM337.867 17.8848L347.778 45.3314L348.719 44.9917L338.807 17.5452L337.867 17.8848ZM328.513 45.3371L338.805 17.8905L337.869 17.5394L327.577 44.986L328.513 45.3371ZM327.862 45.6615H348.431V44.6615H327.862V45.6615ZM348.9 44.9887L338.79 17.5421L337.852 17.8878L347.962 45.3343L348.9 44.9887ZM337.854 17.5369L327.395 44.9835L328.329 45.3395L338.788 17.893L337.854 17.5369Z" fill="white"/>
</g>
<path id="T_2" d="M391.751 14.2841H432.54V16.5713H413.48V64.984H410.811V16.5713H391.751V14.2841Z" fill="#FFF2F2" stroke="white"/>
</g>
<g id="Box">
<path id="line5" d="M449.34 0.999996V51.6458H451V0.999996H449.34Z" fill="#FFF2F2" stroke="#FFFDFD"/>
<path id="line4" d="M451 1H2.66052V2.24539H451V1Z" fill="#FFF2F2" stroke="#FFFDFD"/>
<path id="line3" d="M1 0.999969L1 78.214H2.66052L2.66052 0.999969H1Z" fill="#FFF2F2" stroke="#FFFDFD"/>
<path id="line2" d="M451 77.3838H2.66052V78.6292H451V77.3838Z" fill="#FFF2F2" stroke="#FFFDFD"/>
<path id="line1" d="M449.34 64.9299V78.214H451V64.9299H449.34Z" fill="#FFF2F2" stroke="#FFFDFD"/>
</g>
</g>
</svg>
